<?xml version="1.0" encoding="iso-8859-1"?><!-- Generator: Adobe Illustrator 21.1.0, SVG Export Plug-In . SVG Version: 6.00 Build 0)  --><svg xmlns="http://www.w3.org/2000/svg" xmlns:xlink="http://www.w3.org/1999/xlink" viewBox="0 0 50 50" width="50px" height="50px"><line style="fill:none;stroke:#000000;stroke-width:2;stroke-linecap:round;stroke-linejoin:round;stroke-miterlimit:10;" x1="25" y1="43" x2="25" y2="46"/><line style="fill:none;stroke:#000000;stroke-width:2;stroke-linecap:round;stroke-linejoin:round;stroke-miterlimit:10;" x1="25" y1="4" x2="25" y2="7"/><line style="fill:none;stroke:#000000;stroke-width:2;stroke-linecap:round;stroke-linejoin:round;stroke-miterlimit:10;" x1="41.002" y1="34.349" x2="43.132" y2="35.594"/><line style="fill:none;stroke:#000000;stroke-width:2;stroke-linecap:round;stroke-linejoin:round;stroke-miterlimit:10;" x1="6.868" y1="14.406" x2="9.176" y2="15.754"/><line style="fill:none;stroke:#000000;stroke-width:2;stroke-linecap:round;stroke-linejoin:round;stroke-miterlimit:10;" x1="9.176" y1="34.246" x2="6.868" y2="35.594"/><line style="fill:none;stroke:#000000;stroke-width:2;stroke-linecap:round;stroke-linejoin:round;stroke-miterlimit:10;" x1="43.132" y1="14.406" x2="41" y2="15.652"/><path d="M43.179,29.405c-0.13-0.231-0.346-0.402-0.602-0.475l-1.948-0.551C40.875,27.253,41,26.12,41,25c0-1.121-0.125-2.254-0.371-3.38l1.947-0.55c0.256-0.072,0.472-0.243,0.602-0.475c0.129-0.231,0.161-0.505,0.089-0.76c-0.472-1.665-1.141-3.223-1.989-4.632c-0.848-1.409-1.912-2.729-3.162-3.926c-0.192-0.184-0.44-0.281-0.714-0.277c-0.266,0.006-0.518,0.117-0.7,0.309l-1.4,1.466c-1.516-1.276-3.264-2.264-5.138-2.903l0.533-1.957c0.146-0.533-0.169-1.083-0.702-1.228c-3.334-0.909-6.654-0.909-9.988,0c-0.533,0.146-0.848,0.695-0.702,1.228l0.533,1.957c-1.874,0.64-3.623,1.628-5.139,2.904l-1.401-1.466c-0.183-0.192-0.436-0.303-0.7-0.309c-0.257-0.005-0.522,0.094-0.714,0.277c-1.251,1.198-2.314,2.519-3.161,3.926c-0.849,1.41-1.518,2.968-1.989,4.632c-0.072,0.255-0.04,0.529,0.089,0.76c0.13,0.232,0.346,0.402,0.602,0.475l1.948,0.55C9.125,22.747,9,23.879,9,25c0,1.12,0.125,2.253,0.371,3.379L7.423,28.93c-0.256,0.072-0.472,0.243-0.602,0.475c-0.129,0.231-0.161,0.505-0.089,0.76c0.471,1.663,1.14,3.221,1.989,4.632c0.846,1.406,1.909,2.727,3.161,3.926c0.191,0.184,0.458,0.295,0.714,0.277c0.265-0.005,0.518-0.117,0.7-0.309l1.401-1.466c1.516,1.276,3.265,2.264,5.139,2.904l-0.533,1.957c-0.146,0.533,0.169,1.082,0.701,1.228C21.672,43.77,23.353,44,25,44s3.328-0.23,4.995-0.686c0.532-0.146,0.847-0.695,0.701-1.228l-0.533-1.957c1.874-0.64,3.622-1.628,5.138-2.904l1.402,1.466c0.184,0.192,0.436,0.303,0.701,0.309c0.271-0.003,0.522-0.095,0.713-0.278c1.251-1.198,2.314-2.519,3.161-3.926c0.849-1.41,1.518-2.968,1.989-4.632C43.34,29.91,43.308,29.636,43.179,29.405z M32.6,32.952l0.002,0.002L32.6,32.952L32.6,32.952c-0.022-0.023-3.454-3.614-3.454-3.615c-0.711,0.68-1.589,1.187-2.567,1.453l1.315,4.823c0.013-0.003,0.027-0.005,0.04-0.008l-0.039,0.01l-0.001-0.002C26.972,35.863,26.002,36,25,36s-1.973-0.134-2.896-0.385l0.076-0.275c0,0,1.241-4.549,1.241-4.55c-0.977-0.266-1.855-0.773-2.566-1.452L17.4,32.952l-0.002-0.002c-1.399-1.338-2.445-3.041-2.986-4.956v-0.002l4.813-1.361l-0.001-0.004C19.078,26.111,19,25.565,19,25c0-0.566,0.078-1.114,0.225-1.633h0.001c0,0-4.813-1.361-4.814-1.361c0.541-1.916,1.588-3.62,2.988-4.958l0.004,0.004l3.448,3.608l0.003,0.003c0.711-0.68,1.589-1.187,2.566-1.452l-1.316-4.825C23.028,14.134,23.998,14,25,14c0.969,0,1.908,0.125,2.803,0.36l0.086,0.045l-1.31,4.804h0.001c0.955,0.26,1.815,0.75,2.518,1.407l0.047,0.046l3.455-3.615l0.068,0.065c1.365,1.328,2.387,3.008,2.92,4.894h0l0.002,0.006c-0.001-0.002-0.002-0.004-0.002-0.006l-4.813,1.361C30.921,23.886,31,24.434,31,25c0,0.566-0.078,1.113-0.225,1.633h-0.001l4.814,1.361l0,0l0.007,0.002l-0.007-0.002C35.047,29.91,34,31.614,32.6,32.952z"/><circle style="fill:none;stroke:#000000;stroke-width:2;stroke-linecap:round;stroke-linejoin:round;stroke-miterlimit:10;" cx="25" cy="25" r="22"/></svg>