<svg width="92" height="92" viewBox="0 0 92 92" fill="none" xmlns="http://www.w3.org/2000/svg">
<path d="M21.6354 66H30.1182V45.3991L18 36.3105V62.3645C18 64.3762 19.6299 66 21.6354 66Z" fill="#4285F4"/>
<path d="M59.2018 66H67.6845C69.6961 66 71.3199 64.3701 71.3199 62.3645V36.3105L59.2018 45.3991" fill="#34A853"/>
<path d="M59.2018 29.6458V45.3994L71.3199 36.3108V31.4635C71.3199 26.9676 66.1879 24.4047 62.5948 27.1009" fill="#FBBC04"/>
<path d="M30.1182 45.3991V29.6455L44.66 40.5519L59.2018 29.6455V45.3991L44.66 56.3055" fill="#EA4335"/>
<path d="M18 31.4635V36.3108L30.1182 45.3994V29.6458L26.7251 27.1009C23.126 24.4047 18 26.9676 18 31.4635Z" fill="#C5221F"/>
</svg>
