<svg width="152" height="79" viewBox="0 0 152 79" fill="none" xmlns="http://www.w3.org/2000/svg">
<g clip-path="url(#clip0_20_38)">
<path fill-rule="evenodd" clip-rule="evenodd" d="M133.162 0H0V59.4185L0.162037 59.25L19.162 79H152V19.9184L133 0.168429L133.162 0ZM67.147 54.8135H61.6147V64.8306H40.0533V12.2625H61.6147V22.2796H67.147V6.44064H41.3555C39.8366 6.44064 38.5618 6.72601 37.5311 7.2968C34.7649 8.72374 33.3818 11.5205 33.3818 15.6871V61.4916C33.3818 62.7474 33.5445 63.9172 33.8699 65.0018C34.8463 68.7689 37.6124 70.6525 42.1687 70.6525H67.147V54.8135ZM122.587 70.6525V64.8306H118.03L102.002 37.9472C104.497 36.3491 106.558 35.0363 108.186 34.0089C109.813 32.9815 111.115 31.9827 112.091 31.0124C113.067 29.985 113.746 28.8434 114.125 27.5877C114.505 26.332 114.695 24.6197 114.695 22.4508V17.1426C114.695 12.9189 114.071 10.0936 112.823 8.66665C111.576 7.18266 109.162 6.44064 105.582 6.44064H76.5355V12.2625H81.6614V64.8306H76.5355V70.6525H93.6216V64.8306H88.3331V46.8513L96.9575 41.2863L110.87 64.8306H106.477V70.6525H122.587ZM108.755 26.7316L88.3331 40.002V12.2625H108.755V26.7316Z" fill="#2272FF"/>
<mask id="mask0_20_38" style="mask-type:luminance" maskUnits="userSpaceOnUse" x="0" y="0" width="152" height="79">
<path fill-rule="evenodd" clip-rule="evenodd" d="M133.162 0H0V59.4185L0.162037 59.25L19.162 79H152V19.9184L133 0.168429L133.162 0ZM67.147 54.8135H61.6147V64.8306H40.0533V12.2625H61.6147V22.2796H67.147V6.44064H41.3555C39.8366 6.44064 38.5618 6.72601 37.5311 7.2968C34.7649 8.72374 33.3818 11.5205 33.3818 15.6871V61.4916C33.3818 62.7474 33.5445 63.9172 33.8699 65.0018C34.8463 68.7689 37.6124 70.6525 42.1687 70.6525H67.147V54.8135ZM122.587 70.6525V64.8306H118.03L102.002 37.9472C104.497 36.3491 106.558 35.0363 108.186 34.0089C109.813 32.9815 111.115 31.9827 112.091 31.0124C113.067 29.985 113.746 28.8434 114.125 27.5877C114.505 26.332 114.695 24.6197 114.695 22.4508V17.1426C114.695 12.9189 114.071 10.0936 112.823 8.66665C111.576 7.18266 109.162 6.44064 105.582 6.44064H76.5355V12.2625H81.6614V64.8306H76.5355V70.6525H93.6216V64.8306H88.3331V46.8513L96.9575 41.2863L110.87 64.8306H106.477V70.6525H122.587ZM108.755 26.7316L88.3331 40.002V12.2625H108.755V26.7316Z" fill="white"/>
</mask>
<g mask="url(#mask0_20_38)">
<path d="M-3.21865e-06 1.20401e-05V-1.9458H-1.84915V1.20401e-05H-3.21865e-06ZM133.162 1.20401e-05L134.462 1.38433L137.665 -1.9458H133.162V1.20401e-05ZM-3.21865e-06 59.4185H-1.84915V64.0756L1.29953 60.8028L-3.21865e-06 59.4185ZM0.162034 59.25L1.46155 57.8658L0.162025 56.515L-1.1375 57.8658L0.162034 59.25ZM19.162 79L17.8625 80.3843L18.4027 80.9458H19.162V79ZM152 79V80.9458H153.849V79H152ZM152 19.9184H153.849V19.1055L153.3 18.5342L152 19.9184ZM133 0.168441L131.7 -1.21587L130.369 0.16842L131.7 1.55273L133 0.168441ZM61.6147 54.8136V52.8677H59.7656V54.8136H61.6147ZM67.147 54.8136H68.9962V52.8677H67.147V54.8136ZM61.6147 64.8306V66.7764H63.4639V64.8306H61.6147ZM40.0533 64.8306H38.2041V66.7764H40.0533V64.8306ZM40.0533 12.2625V10.3167H38.2041V12.2625H40.0533ZM61.6147 12.2625H63.4639V10.3167H61.6147V12.2625ZM61.6147 22.2796H59.7656V24.2254H61.6147V22.2796ZM67.147 22.2796V24.2254H68.9962V22.2796H67.147ZM67.147 6.44065H68.9962V4.49484H67.147V6.44065ZM37.5311 7.29681L38.345 9.04399L38.3691 9.0317L38.3924 9.0187L37.5311 7.29681ZM33.8699 65.0018L35.6539 64.4897L35.6443 64.4527L35.6332 64.4158L33.8699 65.0018ZM67.147 70.6525V72.5983H68.9962V70.6525H67.147ZM122.587 64.8306H124.436V62.8848H122.587V64.8306ZM122.587 70.6525V72.5983H124.436V70.6525H122.587ZM118.03 64.8306L116.464 65.8646L117.008 66.7764H118.03V64.8306ZM102.002 37.9473L101.041 36.2851L99.4398 37.3106L100.436 38.9813L102.002 37.9473ZM112.091 31.0124L113.361 32.427L113.38 32.4079L113.399 32.3883L112.091 31.0124ZM112.823 8.66666L111.438 9.95592L111.45 9.97012L111.463 9.98409L112.823 8.66666ZM76.5355 6.44065V4.49484H74.6864V6.44065H76.5355ZM76.5355 12.2625H74.6864V14.2083H76.5355V12.2625ZM81.6613 12.2625H83.5105V10.3167H81.6613V12.2625ZM81.6613 64.8306V66.7764H83.5105V64.8306H81.6613ZM76.5355 64.8306V62.8848H74.6864V64.8306H76.5355ZM76.5355 70.6525H74.6864V72.5983H76.5355V70.6525ZM93.6216 70.6525V72.5983H95.4708V70.6525H93.6216ZM93.6216 64.8306H95.4708V62.8848H93.6216V64.8306ZM88.3331 64.8306H86.4839V66.7764H88.3331V64.8306ZM88.3331 46.8513L87.3667 45.1927L86.4839 45.762V46.8513H88.3331ZM96.9575 41.2863L98.5278 40.2589L97.5577 38.6167L95.9911 39.6277L96.9575 41.2863ZM110.87 64.8306V66.7764H114.198L112.441 63.8032L110.87 64.8306ZM106.477 64.8306V62.8848H104.628V64.8306H106.477ZM106.477 70.6525H104.628V72.5983H106.477V70.6525ZM88.3331 40.002H86.4839V43.4905L89.305 41.6575L88.3331 40.002ZM108.755 26.7316L109.727 28.3872L110.604 27.8169V26.7316H108.755ZM88.3331 12.2625V10.3167H86.4839V12.2625H88.3331ZM108.755 12.2625H110.604V10.3167H108.755V12.2625ZM-3.21865e-06 1.94582H133.162V-1.9458H-3.21865e-06V1.94582ZM1.84915 59.4185V1.20401e-05H-1.84915V59.4185H1.84915ZM-1.1375 57.8658L-1.29953 58.0343L1.29953 60.8028L1.46156 60.6343L-1.1375 57.8658ZM20.4616 77.6158L1.46155 57.8658L-1.13748 60.6343L17.8625 80.3843L20.4616 77.6158ZM152 77.0542H19.162V80.9458H152V77.0542ZM150.151 19.9184V79H153.849V19.9184H150.151ZM131.7 1.55273L150.7 21.3027L153.3 18.5342L134.3 -1.21585L131.7 1.55273ZM131.862 -1.3843L131.7 -1.21587L134.3 1.55275L134.462 1.38433L131.862 -1.3843ZM61.6147 56.7594H67.147V52.8677H61.6147V56.7594ZM63.4639 64.8306V54.8136H59.7656V64.8306H63.4639ZM40.0533 66.7764H61.6147V62.8848H40.0533V66.7764ZM38.2041 12.2625V64.8306H41.9024V12.2625H38.2041ZM61.6147 10.3167H40.0533V14.2083H61.6147V10.3167ZM63.4639 22.2796V12.2625H59.7656V22.2796H63.4639ZM67.147 20.3338H61.6147V24.2254H67.147V20.3338ZM65.2979 6.44065V22.2796H68.9962V6.44065H65.2979ZM41.3555 8.38647H67.147V4.49484H41.3555V8.38647ZM38.3924 9.0187C39.0891 8.63288 40.0485 8.38647 41.3555 8.38647V4.49484C39.6247 4.49484 38.0344 4.81917 36.67 5.57492L38.3924 9.0187ZM35.2309 15.6872C35.2309 12.011 36.4023 10.0462 38.345 9.04399L36.7173 5.54963C33.1276 7.4013 31.5326 11.03 31.5326 15.6872H35.2309ZM35.2309 61.4916V15.6872H31.5326V61.4916H35.2309ZM35.6332 64.4158C35.3703 63.5398 35.2309 62.5692 35.2309 61.4916H31.5326C31.5326 62.9257 31.7187 64.2951 32.1066 65.5879L35.6332 64.4158ZM42.1687 68.7067C40.1154 68.7067 38.6712 68.2801 37.6816 67.6061C36.7292 66.9578 36.0385 65.974 35.6539 64.4897L32.0859 65.514C32.6777 67.7968 33.8583 69.6383 35.6724 70.8735C37.449 72.083 39.6661 72.5983 42.1687 72.5983V68.7067ZM67.147 68.7067H42.1687V72.5983H67.147V68.7067ZM65.2979 54.8136V70.6525H68.9962V54.8136H65.2979ZM120.738 64.8306V70.6525H124.436V64.8306H120.738ZM118.03 66.7764H122.587V62.8848H118.03V66.7764ZM100.436 38.9813L116.464 65.8646L119.597 63.7966L103.569 36.9131L100.436 38.9813ZM107.234 32.3404C105.602 33.3707 103.538 34.6858 101.041 36.2851L102.964 39.6094C105.457 38.0123 107.514 36.7019 109.137 35.6775L107.234 32.3404ZM110.821 29.5977C109.973 30.4411 108.79 31.3582 107.234 32.3404L109.137 35.6775C110.836 34.6049 112.257 33.5243 113.361 32.427L110.821 29.5977ZM112.363 26.9978C112.082 27.9276 111.573 28.8061 110.784 29.6365L113.399 32.3883C114.562 31.1639 115.409 29.7593 115.887 28.1777L112.363 26.9978ZM112.845 22.4508C112.845 24.5311 112.66 26.016 112.363 26.9978L115.887 28.1777C116.35 26.648 116.544 24.7084 116.544 22.4508H112.845ZM112.845 17.1426V22.4508H116.544V17.1426H112.845ZM111.463 9.98409C111.789 10.3571 112.153 11.0607 112.426 12.2962C112.695 13.5154 112.845 15.1182 112.845 17.1426H116.544C116.544 14.9433 116.383 13.0217 116.028 11.4155C115.677 9.82563 115.106 8.40316 114.184 7.34923L111.463 9.98409ZM105.582 8.38647C109.065 8.38647 110.752 9.13914 111.438 9.95592L114.208 7.37741C112.4 5.22615 109.259 4.49484 105.582 4.49484V8.38647ZM76.5355 8.38647H105.582V4.49484H76.5355V8.38647ZM78.3847 12.2625V6.44065H74.6864V12.2625H78.3847ZM81.6613 10.3167H76.5355V14.2083H81.6613V10.3167ZM83.5105 64.8306V12.2625H79.8122V64.8306H83.5105ZM76.5355 66.7764H81.6613V62.8848H76.5355V66.7764ZM78.3847 70.6525V64.8306H74.6864V70.6525H78.3847ZM93.6216 68.7067H76.5355V72.5983H93.6216V68.7067ZM91.7725 64.8306V70.6525H95.4708V64.8306H91.7725ZM88.3331 66.7764H93.6216V62.8848H88.3331V66.7764ZM86.4839 46.8513V64.8306H90.1822V46.8513H86.4839ZM95.9911 39.6277L87.3667 45.1927L89.2998 48.5099L97.9242 42.9449L95.9911 39.6277ZM112.441 63.8032L98.5278 40.2589L95.3872 42.3137L109.3 65.858L112.441 63.8032ZM106.477 66.7764H110.87V62.8848H106.477V66.7764ZM108.326 70.6525V64.8306H104.628V70.6525H108.326ZM122.587 68.7067H106.477V72.5983H122.587V68.7067ZM89.305 41.6575L109.727 28.3872L107.784 25.076L87.3615 38.3465L89.305 41.6575ZM86.4839 12.2625V40.002H90.1822V12.2625H86.4839ZM108.755 10.3167H88.3331V14.2083H108.755V10.3167ZM110.604 26.7316V12.2625H106.906V26.7316H110.604Z" fill="black"/>
</g>
</g>
<defs>
<clipPath id="clip0_20_38">
<rect width="152" height="79" fill="white"/>
</clipPath>
</defs>
</svg>
